<svg xmlns="http://www.w3.org/2000/svg" width="64" height="64" xmlns:xlink="http://www.w3.org/1999/xlink"><defs><linearGradient id="c"><stop stop-color="#2d3335" offset="0"/><stop stop-color="#4c464a" offset=".5"/><stop stop-color="#384042" offset="1"/></linearGradient><linearGradient id="a"><stop offset="0"/><stop stop-opacity="0" offset="1"/></linearGradient><linearGradient id="H" x1="94.25" x2="9" y1="-94.672" y2="-179.97" xlink:href="#a" gradientUnits="userSpaceOnUse"/><linearGradient id="I" x1="50.75" x2="35.75" y1="-114.44" y2="-30.438" xlink:href="#a" gradientUnits="userSpaceOnUse"/><linearGradient id="J" x1="77.625" x2="115.25" y1="-163.12" y2="-74.625" xlink:href="#a" gradientUnits="userSpaceOnUse"/><linearGradient id="K" x1="56.5" x2="125.72" y1="-50.438" y2="7.063" xlink:href="#a" gradientUnits="userSpaceOnUse"/><linearGradient id="L" x1="35" x2="180.75" y1="-163.3" y2="-146.8" xlink:href="#a" gradientUnits="userSpaceOnUse"/><linearGradient id="M" x1="57" x2="179" y1="-141.11" y2="-41.609" xlink:href="#a" gradientUnits="userSpaceOnUse"/><linearGradient id="N" x1="156" x2="208.25" y1="-26.5" y2="39.75" xlink:href="#a" gradientUnits="userSpaceOnUse"/><linearGradient id="O" x1="142.75" x2="235" y1="-169.3" y2="-77.297" xlink:href="#a" gradientUnits="userSpaceOnUse"/><linearGradient id="z" x1="214.25" x2="166.5" y1="-161.36" y2="-113.72" xlink:href="#b" gradientUnits="userSpaceOnUse"/><linearGradient id="b"><stop stop-color="#fff" offset="0"/><stop stop-color="#fff" stop-opacity="0" offset="1"/></linearGradient><linearGradient id="A" x1="53.25" x2="57.656" y1="-126.5" y2="-62.469" xlink:href="#b" gradientUnits="userSpaceOnUse"/><linearGradient id="B" x1="39.5" x2="75.719" y1="6.625" y2="-17.125" xlink:href="#b" gradientUnits="userSpaceOnUse"/><linearGradient id="C" x1="102" x2="85.312" y1="-162.34" y2="-121.44" xlink:href="#b" gradientUnits="userSpaceOnUse"/><linearGradient id="D" x1="117.75" x2="63.5" y1="-78.094" y2="-14.75" xlink:href="#b" gradientUnits="userSpaceOnUse"/><linearGradient id="E" x1="180.69" x2="133.94" y1="-125.12" y2="-60.75" xlink:href="#b" gradientUnits="userSpaceOnUse"/><linearGradient id="F" x1="170.75" x2="130.22" y1="-23.5" y2="33.375" xlink:href="#b" gradientUnits="userSpaceOnUse"/><linearGradient id="G" x1="213.5" x2="181.75" y1="-76" y2="-5.656" xlink:href="#b" gradientUnits="userSpaceOnUse"/><linearGradient id="P" x1="120" x2="136" y1="186.5" y2="186.5" gradientUnits="userSpaceOnUse" gradientTransform="rotate(45 104.976 51.258) scale(1.39197)"><stop stop-color="#f9e295" offset="0"/><stop stop-color="#f7dd84" offset=".125"/><stop stop-color="#fff" offset=".206"/><stop stop-color="#f4ce51" offset=".301"/><stop stop-color="#f9e7aa" offset=".341"/><stop stop-color="#efbb0e" offset="1"/></linearGradient><linearGradient id="U" x1="123" x2="133" y1="150.38" y2="150.38" gradientUnits="userSpaceOnUse" gradientTransform="rotate(-135 332.79 -39.72) scale(2.784 -2.4637)"><stop stop-color="#2d3335" offset="0"/><stop stop-color="#4c464a" offset=".5"/><stop stop-color="#384042" offset="1"/></linearGradient><linearGradient id="T" x1="120" x2="136" y1="186.5" y2="186.5" gradientUnits="userSpaceOnUse" gradientTransform="rotate(45 217.556 97.895) scale(1.392)"><stop stop-color="#f9e295" offset="0"/><stop stop-color="#f7dd84" offset=".125"/><stop stop-color="#fff" offset=".206"/><stop stop-color="#f4ce51" offset=".301"/><stop stop-color="#f9e7aa" offset=".341"/><stop stop-color="#efbb0e" offset="1"/></linearGradient><linearGradient id="S" x1="123" x2="133" y1="150.38" y2="150.38" xlink:href="#c" gradientUnits="userSpaceOnUse" gradientTransform="rotate(-135 218.725 -16.314) scale(1.392)"/><linearGradient id="R" x1="128" x2="130.88" y1="134.36" y2="143.36" xlink:href="#c" gradientUnits="userSpaceOnUse" gradientTransform="rotate(45 217.556 97.895) scale(1.392)"/><radialGradient id="Q" cx="128" cy="86" r="47" gradientUnits="userSpaceOnUse" gradientTransform="rotate(45 -72.63 -27.67) scale(1.4216)"><stop stop-color="#d0e9f2" stop-opacity="0" offset="0"/><stop stop-color="#d0e9f2" stop-opacity="0" offset=".839"/><stop stop-color="#d0e9f2" stop-opacity=".282" offset=".943"/><stop stop-color="#d0e9f2" offset="1"/></radialGradient><linearGradient id="V" x1="108" x2="133" y1="167.73" y2="150.38" xlink:href="#a" gradientUnits="userSpaceOnUse" gradientTransform="rotate(-135 332.79 -39.72) scale(2.784 -2.4637)"/><radialGradient id="Y" cx="159.61" cy="72.588" r="38.417" gradientUnits="userSpaceOnUse" gradientTransform="matrix(1.2125 0 0 .839 -46.348 24.528)"><stop stop-color="#fff" offset="0"/><stop stop-color="#fff" stop-opacity=".93" offset=".5"/><stop stop-color="#fff" stop-opacity="0" offset="1"/></radialGradient><radialGradient id="X" cx="159.61" cy="72.588" r="38.417" gradientUnits="userSpaceOnUse" gradientTransform="matrix(1.2125 0 0 .839 -45.92 25.814)"><stop stop-color="#fff" offset="0"/><stop stop-color="#fff" stop-opacity="0" offset="1"/></radialGradient><linearGradient id="W" x1="126.64" x2="179.96" y1="29.815" y2="137.2" gradientUnits="userSpaceOnUse" gradientTransform="translate(0 -10)"><stop stop-color="#fff" offset="0"/><stop stop-color="#fff" stop-opacity="0" offset="1"/></linearGradient><linearGradient id="Z" x1="126.64" x2="179.96" y1="29.815" y2="137.2" gradientUnits="userSpaceOnUse" gradientTransform="matrix(-.503 .1984 .1972 -.4325 276.16 123.42)"><stop stop-color="#fff" offset="0"/><stop stop-color="#fff" stop-opacity="0" offset="1"/></linearGradient><clipPath id="v"><path fill="#ceeeab" d="M9 12.25s7.5 13 11.75 27.75S27 65.5 27 65.5s-5.5 12.75-8.25 24.75-5.75 23-5.75 23 5.75 16 9.25 30S26 167.5 26 167.5s-4 10.25-7.5 24.25-5 30.75-5 30.75 9.25-2 28.5 1.25 32.25 6 32.25 6 12.75-2.75 24-6.25 16.25-6.5 16.25-6.5 5.5.5 22.5 6.25 29.25 8.5 29.25 8.5 13-2.75 26-5.75 26.5-8 26.5-8-.75-5 4.25-24.5 8.75-28 8.75-28-.5-4.5-3.75-19.75S218 116 218 116s1.75-10.5 6.75-23.75S235 65.5 235 65.5s-4.75-15.25-7.5-29.75S219.25 10 219.25 10 195 19 187.5 20.5s-21 5.25-21 5.25-9.75-4.25-22-8.5-29.75-5.5-29.75-5.5-3.25 3.5-22 8-27.5 5.75-27.5 5.75-18.5-9-31.5-11.5-24-2-24.75-1.75z"/></clipPath><clipPath id="w"><path fill="#ceeeab" d="M9 12.25s7.5 13 11.75 27.75S27 65.5 27 65.5s-5.5 12.75-8.25 24.75-5.75 23-5.75 23 5.75 16 9.25 30S26 167.5 26 167.5s-4 10.25-7.5 24.25-5 30.75-5 30.75 9.25-2 28.5 1.25 32.25 6 32.25 6 12.75-2.75 24-6.25 16.25-6.5 16.25-6.5 5.5.5 22.5 6.25 29.25 8.5 29.25 8.5 13-2.75 26-5.75 26.5-8 26.5-8-.75-5 4.25-24.5 8.75-28 8.75-28-.5-4.5-3.75-19.75S218 116 218 116s1.75-10.5 6.75-23.75S235 65.5 235 65.5s-4.75-15.25-7.5-29.75S219.25 10 219.25 10 195 19 187.5 20.5s-21 5.25-21 5.25-9.75-4.25-22-8.5-29.75-5.5-29.75-5.5-3.25 3.5-22 8-27.5 5.75-27.5 5.75-18.5-9-31.5-11.5-24-2-24.75-1.75z"/></clipPath><clipPath id="x"><path fill="#ceeeab" d="M9 12.25s7.5 13 11.75 27.75S27 65.5 27 65.5s-5.5 12.75-8.25 24.75-5.75 23-5.75 23 5.75 16 9.25 30S26 167.5 26 167.5s-4 10.25-7.5 24.25-5 30.75-5 30.75 9.25-2 28.5 1.25 32.25 6 32.25 6 12.75-2.75 24-6.25 16.25-6.5 16.25-6.5 5.5.5 22.5 6.25 29.25 8.5 29.25 8.5 13-2.75 26-5.75 26.5-8 26.5-8-.75-5 4.25-24.5 8.75-28 8.75-28-.5-4.5-3.75-19.75S218 116 218 116s1.75-10.5 6.75-23.75S235 65.5 235 65.5s-4.75-15.25-7.5-29.75S219.25 10 219.25 10 195 19 187.5 20.5s-21 5.25-21 5.25-9.75-4.25-22-8.5-29.75-5.5-29.75-5.5-3.25 3.5-22 8-27.5 5.75-27.5 5.75-18.5-9-31.5-11.5-24-2-24.75-1.75z"/></clipPath><linearGradient id="y" x1="210.17" x2="9" y1="72.064" y2="-213.25" gradientUnits="userSpaceOnUse" gradientTransform="translate(0 192)"><stop offset="0"/><stop stop-opacity="0" offset="1"/></linearGradient><clipPath id="u"><path fill="url(#d)" d="M123.62 141.06c20.832 20.243 54.607 19.29 75.44-2.132 20.83-21.42 20.83-55.196 0-75.44-20.833-20.242-54.608-19.288-75.44 2.133-20.832 21.422-20.832 55.197 0 75.44z"/></clipPath><radialGradient id="d" cx="128" cy="86" r="47" gradientUnits="userSpaceOnUse" gradientTransform="matrix(.8025 .78 .8025 -.8252 -10.402 73.423)"><stop stop-color="#d0e9f2" stop-opacity="0" offset="0"/><stop stop-color="#d0e9f2" stop-opacity="0" offset=".839"/><stop stop-color="#d0e9f2" stop-opacity=".282" offset=".943"/><stop stop-color="#d0e9f2" offset="1"/></radialGradient><linearGradient id="e" x1="214.25" x2="166.5" y1="-161.36" y2="-113.72" xlink:href="#b" gradientUnits="userSpaceOnUse"/><linearGradient id="f" x1="53.25" x2="57.656" y1="-126.5" y2="-62.469" xlink:href="#b" gradientUnits="userSpaceOnUse"/><linearGradient id="g" x1="39.5" x2="75.719" y1="6.625" y2="-17.125" xlink:href="#b" gradientUnits="userSpaceOnUse"/><linearGradient id="h" x1="102" x2="85.312" y1="-162.34" y2="-121.44" xlink:href="#b" gradientUnits="userSpaceOnUse"/><linearGradient id="i" x1="117.75" x2="63.5" y1="-78.094" y2="-14.75" xlink:href="#b" gradientUnits="userSpaceOnUse"/><linearGradient id="j" x1="180.69" x2="133.94" y1="-125.12" y2="-60.75" xlink:href="#b" gradientUnits="userSpaceOnUse"/><linearGradient id="k" x1="170.75" x2="130.22" y1="-23.5" y2="33.375" xlink:href="#b" gradientUnits="userSpaceOnUse"/><linearGradient id="l" x1="213.5" x2="181.75" y1="-76" y2="-5.656" xlink:href="#b" gradientUnits="userSpaceOnUse"/><linearGradient id="m" x1="94.25" x2="9" y1="-94.672" y2="-179.97" xlink:href="#a" gradientUnits="userSpaceOnUse"/><linearGradient id="n" x1="50.75" x2="35.75" y1="-114.44" y2="-30.438" xlink:href="#a" gradientUnits="userSpaceOnUse"/><linearGradient id="o" x1="77.625" x2="115.25" y1="-163.12" y2="-74.625" xlink:href="#a" gradientUnits="userSpaceOnUse"/><linearGradient id="p" x1="56.5" x2="125.72" y1="-50.438" y2="7.063" xlink:href="#a" gradientUnits="userSpaceOnUse"/><linearGradient id="q" x1="35" x2="180.75" y1="-163.3" y2="-146.8" xlink:href="#a" gradientUnits="userSpaceOnUse"/><linearGradient id="r" x1="57" x2="179" y1="-141.11" y2="-41.609" xlink:href="#a" gradientUnits="userSpaceOnUse"/><linearGradient id="s" x1="156" x2="208.25" y1="-26.5" y2="39.75" xlink:href="#a" gradientUnits="userSpaceOnUse"/><linearGradient id="t" x1="142.75" x2="235" y1="-169.3" y2="-77.297" xlink:href="#a" gradientUnits="userSpaceOnUse"/></defs><g opacity=".504"><path fill="#b1e479" d="M59.244.926s-6.795 2.522-8.896 2.942c-2.102.42-5.885 1.47-5.885 1.47S41.73 4.15 38.3 2.96c-3.434-1.19-8.337-1.542-8.337-1.542s-.91.98-6.164 2.242c-5.255 1.26-7.707 1.61-7.707 1.61S10.91 2.75 7.267 2.05C3.624 1.345.542 1.485.332 1.555c0 0 2.1 3.643 3.292 7.776 1.19 4.133 1.75 7.145 1.75 7.145l14.423 1.436 13.722-1.12 14.64 3.37c2.908-1.238 14.6-1.373 15.497-3.686 0 0-1.33-4.273-2.102-8.336-.77-4.062-2.31-7.214-2.31-7.214z"/><path fill="#87d531" d="M5.375 16.477s-1.54 3.573-2.31 6.935c-.772 3.362-1.612 6.445-1.612 6.445l14.28 4.587 15.054-4.41 14.64 4.91c4.584-1.193 9.076-2.554 13.467-4.317 0 0 .49-2.942 1.89-6.655 1.402-3.712 2.873-7.495 2.873-7.495-.897 2.313-12.59 2.448-15.498 3.686l-14.64-3.37-13.443 1.12z"/><path fill="#ceeeab" d="M62.746 44.497c-5.015 2.15-10.07 4.175-15.217 6l-14.642-5.193-14.072 2.522-13.72-2.768s-1.122 2.872-2.102 6.794c-.98 3.923-1.4 8.617-1.4 8.617 0-.002 2.59-.562 7.984.35 5.394.91 9.037 1.68 9.037 1.68s3.572-.77 6.725-1.75c3.152-.982 4.553-1.823 4.553-1.823s1.54.14 6.304 1.752c4.764 1.61 8.196 2.38 8.196 2.38s3.643-.77 7.285-1.61c3.643-.84 7.426-2.242 7.426-2.242s-.21-1.4 1.19-6.865c1.402-5.464 2.452-7.846 2.452-7.846z"/><path fill="#b9e787" d="M1.453 29.857s1.61 4.483 2.59 8.406c.982 3.922 1.052 6.795 1.052 6.795l13.72 2.768 14.073-2.522 14.64 5.192c5.148-1.824 10.203-3.85 15.218-6 0 0-.14-1.26-1.05-5.533-.91-4.273-2.802-8.336-2.802-8.336-4.39 1.763-8.883 3.124-13.467 4.318l-14.64-4.912-15.053 4.41z"/></g><g opacity=".522"><path fill="#83d32b" d="M1.654 1.496C.89 1.494.41 1.53.332 1.556c0 0 2.1 3.644 3.292 7.777 1.19 4.133 1.75 7.145 1.75 7.145s-1.54 3.572-2.31 6.935c-.77 3.362-1.61 6.444-1.61 6.444s1.61 4.483 2.59 8.406c.98 3.923 1.05 6.795 1.05 6.795s-1.12 2.872-2.1 6.795-1.4 8.616-1.4 8.616 2.59-.56 7.984.35 9.037 1.68 9.037 1.68l.42-14.92-3.432-13.03 4.483-16.74c-.622-4.34-2.54-8.42-3.993-12.54 0 0-5.184-2.522-8.826-3.223-2.277-.437-4.34-.548-5.613-.55z"/><path fill="#b1e479" d="M29.963 1.417s-.91.98-6.164 2.242c-5.255 1.26-7.707 1.61-7.707 1.61 1.452 4.12 3.37 8.2 3.993 12.54l-4.483 16.74 3.432 13.03-.42 14.92s3.572-.77 6.725-1.75c3.152-.98 4.553-1.822 4.553-1.822l3.152-13.59-2.312-15.2 3.293-12.61c-.964-2.725-2.26-15.95-4.063-16.11z"/><path fill="#a4df62" d="M59.244.927s-6.795 2.52-8.896 2.942c-2.102.42-5.885 1.47-5.885 1.47 1.38-.38 3.206 12.72 3.993 14.64L45.304 34.9l2.662 15.412-3.573 12.75s3.643-.772 7.285-1.612c3.643-.84 7.426-2.242 7.426-2.242s-.21-1.4 1.19-6.865c1.402-5.464 2.452-7.845 2.452-7.845s-.14-1.26-1.05-5.534c-.91-4.273-2.802-8.336-2.802-8.336s.49-2.942 1.89-6.655c1.402-3.713 2.873-7.495 2.873-7.495s-1.33-4.273-2.102-8.336c-.77-4.063-2.31-7.215-2.31-7.215z"/><path fill="#ceeeab" d="M29.963 1.417c1.804.16 3.1 13.386 4.063 16.11l-3.293 12.61 2.312 14.92-3.152 13.87s1.54.14 6.304 1.752c4.764 1.61 8.196 2.38 8.196 2.38l3.573-12.748-2.662-15.41 3.152-14.922c-.787-1.92-2.614-15.02-3.993-14.64 0 0-2.732-1.19-6.164-2.382-3.434-1.19-8.337-1.54-8.337-1.54z"/></g><g><g opacity=".27"><path fill="url(#e)" d="M219.25-182s-24.25 9-31.75 10.5-21 5.25-21 5.25c4.92-1.36 11.44 45.39 14.25 52.25l-.06.28c11.81-4.07 51.21-4.77 54.31-12.78 0 0-4.75-15.25-7.5-29.75S219.25-182 219.25-182z" transform="translate(-2.19 51.933) scale(.2802)"/><path fill="url(#f)" d="M27-126.5s-5.5 12.75-8.25 24.75-5.75 23-5.75 23l50.625 16.28 15.78-58.91z" transform="translate(-2.19 51.933) scale(.2802)"/><path fill="url(#g)" d="M26-24.5S22-14.25 18.5-.25s-5 30.75-5 30.75.147-.045.438-.094c2.033-.338 11.218-1.5 28.062 1.344 19.25 3.25 32.25 6 32.25 6l1.47-52.5-.75.125z" transform="translate(-2.19 51.933) scale(.2802)"/><path fill="url(#h)" d="M114.75-180.25s-3.25 3.5-22 8-27.5 5.75-27.5 5.75c5.182 14.7 12.03 29.27 14.25 44.75l-.094.31 48.034-3.94 1.12.26c-3.36-13.33-7.79-54.6-13.81-55.13z" transform="translate(-2.19 51.933) scale(.2802)"/><path fill="url(#i)" d="M117.59-78.094l-53.62 15.72-.345-.095-.125.47 12.25 46.5-.03.75 49.47-8.875.53.187.03-.062-8.25-54.25z" transform="translate(-2.19 51.933) scale(.2802)"/><path fill="url(#j)" d="M128.56-125.12c.24.92.47 1.74.69 2.37l-11.66 44.656.1-.03L169.5-60.75l11.19-52.97c-.36.12-.7.25-1 .38z" transform="translate(-2.19 51.933) scale(.2802)"/><path fill="url(#k)" d="M125.53-23.5L114.5 25s5.5.5 22.5 6.25c2.12.72 4.16 1.406 6.12 2.03 1.97.627 3.86 1.187 5.63 1.72 10.62 3.2 17.5 4.75 17.5 4.75l12.72-45.406c-.51.182-1.02.38-1.53.562L125.53-23.5z" transform="translate(-2.19 51.933) scale(.2802)"/><path fill="url(#l)" d="M218-76c-15.67 6.288-31.7 11.15-48.06 15.406l-.44-.156 9.5 55-.03.094c17.84-6.36 35.38-13.387 52.78-20.844 0 0-.5-4.5-3.75-19.75S218-76 218-76z" transform="translate(-2.19 51.933) scale(.2802)"/></g><g opacity=".043"><path fill="url(#m)" d="M13.72-179.97c-1.107 0-1.973.03-2.72.06-.445.02-.855.04-1.156.07-.03 0-.066-.01-.094 0-.398.03-.656.06-.75.09 0 0 7.5 13 11.75 27.75S27-126.5 27-126.5l51.47 5.12.936-.06.094-.31c-2.22-15.48-9.068-30.05-14.25-44.75 0 0-18.5-9-31.5-11.5-1.018-.2-2.01-.37-3-.53-.596-.1-1.167-.2-1.75-.28-.237-.04-.453-.06-.688-.1-1.306-.18-2.588-.34-3.812-.46-.735-.08-1.395-.13-2.094-.19-.685-.06-1.353-.11-2-.16-.992-.07-1.89-.12-2.78-.15-1.457-.07-2.77-.1-3.907-.1z" transform="translate(-2.19 51.933) scale(.2802)"/><path fill="url(#n)" d="M13-78.75s5.75 16 9.25 30S26-24.5 26-24.5l48.97 9.875.75-.125.03-.75L63.5-62l.125-.47z" transform="translate(-2.19 51.933) scale(.2802)"/><path fill="url(#o)" d="M127.44-125.38l-47.97 4h-.064l-15.78 58.91.343.095 53.62-15.72 11.66-44.655c-.22-.63-.45-1.45-.69-2.37z" transform="translate(-2.19 51.933) scale(.2802)"/><path fill="url(#p)" d="M125.19-23.625L75.72-14.75l-1.47 52.5S87 35 98.25 31.5 114.5 25 114.5 25l11.22-48.438z" transform="translate(-2.19 51.933) scale(.2802)"/><path fill="url(#q)" d="M114.75-180.25c6.02.53 10.45 41.8 13.81 55.13l51.13 11.78c.3-.13.64-.26 1-.38l.06-.28c-2.81-6.86-9.33-53.61-14.25-52.25 0 0-.61-.25-1.72-.72-3.32-1.39-11.09-4.59-20.28-7.78-12.25-4.25-29.75-5.5-29.75-5.5z" transform="translate(-2.19 51.933) scale(.2802)"/><path fill="url(#r)" d="M117.69-78.125l-.1.03-.09.345 8.25 53.25-.22 1 51.91 18.406c.51-.18 1.02-.38 1.53-.562l.03-.094-9.5-55z" transform="translate(-2.19 51.933) scale(.2802)"/><path fill="url(#s)" d="M231.75-26.5c-17.4 7.457-34.94 14.484-52.78 20.844L166.25 39.75s13-2.75 26-5.75 26.5-8 26.5-8S218 21 223 1.5s8.75-28 8.75-28z" transform="translate(-2.19 51.933) scale(.2802)"/><path fill="url(#t)" d="M235-126.5c-3.1 8.01-42.5 8.71-54.31 12.78L169.5-60.75l.44.156C186.3-64.85 202.33-69.712 218-76c0 0 1.75-10.5 6.75-23.75S235-126.5 235-126.5z" transform="translate(-2.19 51.933) scale(.2802)"/></g></g><g><g transform="matrix(.3056 .0086 0 .3056 -7.968 -10.037)" clip-path="url(#u)"><path fill="#ceeeab" d="M9 12.25s7.5 13 11.75 27.75S27 65.5 27 65.5s-5.5 12.75-8.25 24.75-5.75 23-5.75 23 5.75 16 9.25 30S26 167.5 26 167.5s-4 10.25-7.5 24.25-5 30.75-5 30.75 9.25-2 28.5 1.25 32.25 6 32.25 6 12.75-2.75 24-6.25 16.25-6.5 16.25-6.5 5.5.5 22.5 6.25 29.25 8.5 29.25 8.5 13-2.75 26-5.75 26.5-8 26.5-8-.75-5 4.25-24.5 8.75-28 8.75-28-.5-4.5-3.75-19.75S218 116 218 116s1.75-10.5 6.75-23.75S235 65.5 235 65.5s-4.75-15.25-7.5-29.75S219.25 10 219.25 10 195 19 187.5 20.5s-21 5.25-21 5.25-9.75-4.25-22-8.5-29.75-5.5-29.75-5.5-3.25 3.5-22 8-27.5 5.75-27.5 5.75-18.5-9-31.5-11.5-24-2-24.75-1.75z"/><g clip-path="url(#v)"><path fill="#a6dd8b" d="M110.75 5.5l-4.25 7c-.75 9-2.25 13.75-8.5 16.5s-12.25 3.5-11 7.5 13 9.25 14.25 13 8.25 1.75 11 7 2 15.25-3.75 17.25-17.5.5-20.25 9.5-4.75 10.5-9 12.75-7.25 10.5-3.5 16.5 12.25-1.25 15-6.5S98 97.25 98 97.25h23.75l59-1.75 3.25-3.75s3.25 4 2.75 8.75-3.75 14.75.25 17.25 19.5-2 24-7-4.75-28.25-10.5-29.5-18.5-1.75-17-7 11.75 4.5 17.25 3.25 16.75-21 12-25.25-24.25-5.25-25.75-8 21-8 22.25-11-2.5-7.25-6.25-8.5S189 41 182 40.5s-20 5.75-17.25 11.5-6 11-14.5 6.5-24.75-13-21.75-24S150 15.75 150 15.75zM97.188 112.72c-1.595.15-4.47 4.69-4.938 7.03-.5 2.5-3.25 6.75-3.5 12.25s4.75 6.75 8.75 6.5 2.75-6.75 2-15c-.25 0-.5-10.25-2-10.75-.094-.03-.206-.04-.312-.03zm92.722 51.66c-6.34.29-6.63 7.46-7.41 8.87-1.25 2.25 2.25 13.75 2 18s-4.75 5.25-9.5 9.75.5 16 11.25 31l44.75 1.25-1-35s4.75-4.25-20.75-24.25c-9.56-7.5-15.54-9.8-19.34-9.62zM39.94 180.91c-4.03-.11-8.282 5.71-9.688 7.59-1.5 2-6.25 5-17 9.5l-14.5 34.25 53 4.25s1.75-11-4.25-15.75-17.25-5.75-18.25-13.25 9.25-10 13.75-14.25 2-11.25-2.25-12.25c-.266-.06-.544-.09-.812-.09z"/></g><path fill="#aac3e7" d="M158.53 85.344c-4.76-.015-9.03.968-11.53 3.156-8 7-35 .75-48.5 7s-13.25 38-14.75 44.5-17.5 20.75-20 23.5-13.25 7.25-19.5 8.5-12.75 7.25-15.5 11c-2.02 2.76-7.406 6.45-10.125 8.22-.046.18-.08.35-.125.53-.134.53-.247 1.08-.375 1.63 4.98-1.61 11.18-8.18 16.625-13.63 6.25-6.25 20-7.75 27.75-11.5S76.75 148.5 89 144.5s21.25 11.75 24.25 18.5 1.75 12.75 3.75 17 11 11.75 11.5 13.5-5 6.5-6.25 8.5-10.5 7-11.75 8.75c-.97 1.35-1.92 6.77-2.31 9.22.41-.17.75-.31 1.12-.47.49-2.53 1.52-7.08 2.94-8.5 2-2 11.25-4.5 12.5-8.5s7-6.5 7-6.5 2.75 4 16 14c8.83 6.67 12.76 15.53 14.41 20.72.67.17 1.53.41 2.03.53-1.22-4.32-4.84-16.24-8.94-20.75-5-5.5-18.5-10.75-22.75-22S108 154.25 115 148.25s16.5-4 28.5 7.5 46.25 5.75 57.75 3.75c9.95-1.73 20.83 14.88 23.91 26.03.59-2.09 1.12-4 1.65-5.75-1.74-1.92-3.69-4.62-5.31-8.28-3.75-8.5-12-13.25-12-13.25s8.75-5 14.75-7.75c1.62-.74 3.01-1.68 4.19-2.66-.16-.77-.26-1.25-.44-2.09l-.09-.44c-4.77 5.56-19.24 9.62-21.66 10.94-2.75 1.5-18.25 3-35.75 4.5s-26.75-7.5-34.25-14.75-13-36-3-38 20 13.75 30 17 21.5-15.75 19.75-27c-1.2-7.734-14-12.625-24.47-12.656zm-53.34 13.28c1.27.002 5.86 1.596 6.56 2.376 2.25 2.5 2 7.25 0 8s-12.75 8-10.5 14.25 1.75 18-3.5 18-8 0-10-2.5-2-12 0-19.75 3.5-15 8-18.25c3.094-2.234 6.63-2.128 9.44-2.125zm13.59 73.096c.2.01 1.91 3.51 4.72 7.03 3 3.75 3.25 8.25 3.25 8.25s-4.25-4.75-6-8-2-7.25-2-7.25c0-.03.02-.03.03-.03z"/><path fill="none" stroke="#6d7f42" d="M122.75 72.25c6.25.5 12.25-2.25 10.75-6.5s-12.5-7.25-13.25-3 2 10.5 2.5 9.5z" opacity=".387" stroke-linecap="round" stroke-linejoin="round"/><path fill="none" stroke="#6d7f42" d="M108.75 56.75c-8.5-5.5-8.5-7.25-7-8s10.25 5 12.75 8-2.25 2-5.75 0z" opacity=".387" stroke-linecap="round" stroke-linejoin="round"/><g fill="none" stroke="#6d7f42" clip-path="url(#w)"><path d="M15.75 151.25c33-2.5 38.25-3.5 36.25-10.25s-8.75-23.5-23-22.5-22.75-6.75-22.75-6.75" opacity=".387" stroke-linecap="round" stroke-linejoin="round"/><path d="M17.5 177.25c18.25-10 28.75-8.5 35-11.5s13.25-5.75 15.75-9.5 5.75-11.5 5.75-18-3.5-36 3.25-43.5 17.25-26 26-23.25 12.25 9.75 22 9.5S147 77 149.5 68.75s-15.75-16-16-23 5.5-14.25 20.25-17 23.5-11.5 23.5-11.5" opacity=".387"/><path d="M14.5 161c15.25-1.5 22.25 3.5 31.5 1.75s13.25-3 17.75-5.75 6-3.75 6.25-6.5 1-12.5-3-22S54.5 97 58.75 89.75 64 68.25 74.5 65.25 95.5 59 102.25 64s12.75 14.25 20 14.5S134 77 136.75 74s4.5-10.25 1.75-13.75-15.5-5.5-17.25-9.5-10.75-17-.25-26.75 36.25-8.25 36.25-8.25" opacity=".387" stroke-linecap="round" stroke-linejoin="round"/><path d="M21.25 159c13.75 1 21.5 4.25 33.5-.5s13.5-5.25 13.75-8.75-.25-15.75-3-20-13-13.75-15.75-24.25.25-41 8.5-48.25 32-7.25 37.5-10.5 5.25-16.75 13-24.5 27-12.25 27-12.25" opacity=".387" stroke-linecap="round" stroke-linejoin="round"/><path d="M190 18.5c11.75 5 39 9.75 47.25 40.25" opacity=".387" stroke-linecap="round" stroke-linejoin="round"/><path d="M9.75 214c19-12.5 36-1.25 49-4s38.25-37.25 46-37 5.5-11.75 8.5-13.25 5.5 6 11.75 8 24.5-2.75 23.5-5.75-7-7.75-5.5-8.5 8.5 5 12.75 3.5 43.75-1 48.5-13.5 21.5-13.5 21.5-13.5" opacity=".387" stroke-linecap="round" stroke-linejoin="round"/><path d="M77.5 233.5c13.5-11.5 23.25-25 28.5-27s12.75-3.75 15.75-8 2.5-10.75 5.25-12 3.75 5.75 8.75 6 36.75-5 42.75-11.75 32.25-12.5 32.5-14.5-1-4.75.25-5.5 24.75-6 24.75-6" opacity=".387" stroke-linecap="round" stroke-linejoin="round"/><path d="M168.75 236c9-13.75 20.5-41 29.5-42s10.25-2.5 12.5-4.25 17 2.25 17 2.25" opacity=".387" stroke-linecap="round" stroke-linejoin="round"/></g><g fill="none" stroke="#d38484" stroke-width="2" clip-path="url(#x)" stroke-linecap="round"><path d="M57.75 20l-8.5 28.25 18 6.25L75 90.75 54 113l9 10.5L51 135l.5 4.5L71.75 164l14-6.75 20.5 18.5L95.75 204l10.25 8.5-2.75 13"/><path d="M105.75 212.25l12.5-27.75 11-7 27.5 15.75 20.5-3.75-.25-15.75-10.25-6 12.75-26.25 5.75-3.75 38.75-10"/></g><path fill="url(#y)" d="M9 12.25s7.5 13 11.75 27.75S27 65.5 27 65.5s-5.5 12.75-8.25 24.75-5.75 23-5.75 23 5.75 16 9.25 30S26 167.5 26 167.5s-4 10.25-7.5 24.25-5 30.75-5 30.75 9.25-2 28.5 1.25 32.25 6 32.25 6 12.75-2.75 24-6.25 16.25-6.5 16.25-6.5 5.5.5 22.5 6.25 29.25 8.5 29.25 8.5 13-2.75 26-5.75 26.5-8 26.5-8-.75-5 4.25-24.5 8.75-28 8.75-28-.5-4.5-3.75-19.75S218 116 218 116s1.75-10.5 6.75-23.75S235 65.5 235 65.5s-4.75-15.25-7.5-29.75S219.25 10 219.25 10 195 19 187.5 20.5s-21 5.25-21 5.25-9.75-4.25-22-8.5-29.75-5.5-29.75-5.5-3.25 3.5-22 8-27.5 5.75-27.5 5.75-18.5-9-31.5-11.5-24-2-24.75-1.75z" opacity=".039"/><g opacity=".27"><path fill="url(#z)" d="M219.25-182s-24.25 9-31.75 10.5-21 5.25-21 5.25c4.92-1.36 11.44 45.39 14.25 52.25l-.06.28c11.81-4.07 51.21-4.77 54.31-12.78 0 0-4.75-15.25-7.5-29.75S219.25-182 219.25-182z" transform="translate(0 192)"/><path fill="url(#A)" d="M27-126.5s-5.5 12.75-8.25 24.75-5.75 23-5.75 23l50.625 16.28 15.78-58.91z" transform="translate(0 192)"/><path fill="url(#B)" d="M26-24.5S22-14.25 18.5-.25s-5 30.75-5 30.75.147-.045.438-.094c2.033-.338 11.218-1.5 28.062 1.344 19.25 3.25 32.25 6 32.25 6l1.47-52.5-.75.125z" transform="translate(0 192)"/><path fill="url(#C)" d="M114.75-180.25s-3.25 3.5-22 8-27.5 5.75-27.5 5.75c5.182 14.7 12.03 29.27 14.25 44.75l-.094.31 48.034-3.94 1.12.26c-3.36-13.33-7.79-54.6-13.81-55.13z" transform="translate(0 192)"/><path fill="url(#D)" d="M117.59-78.094l-53.62 15.72-.345-.095-.125.47 12.25 46.5-.03.75 49.47-8.875.53.187.03-.062-8.25-54.25z" transform="translate(0 192)"/><path fill="url(#E)" d="M128.56-125.12c.24.92.47 1.74.69 2.37l-11.66 44.656.1-.03L169.5-60.75l11.19-52.97c-.36.12-.7.25-1 .38z" transform="translate(0 192)"/><path fill="url(#F)" d="M125.53-23.5L114.5 25s5.5.5 22.5 6.25c2.12.72 4.16 1.406 6.12 2.03 1.97.627 3.86 1.187 5.63 1.72 10.62 3.2 17.5 4.75 17.5 4.75l12.72-45.406c-.51.182-1.02.38-1.53.562L125.53-23.5z" transform="translate(0 192)"/><path fill="url(#G)" d="M218-76c-15.67 6.288-31.7 11.15-48.06 15.406l-.44-.156 9.5 55-.03.094c17.84-6.36 35.38-13.387 52.78-20.844 0 0-.5-4.5-3.75-19.75S218-76 218-76z" transform="translate(0 192)"/></g><g opacity=".043"><path fill="url(#H)" d="M13.72-179.97c-1.107 0-1.973.03-2.72.06-.445.02-.855.04-1.156.07-.03 0-.066-.01-.094 0-.398.03-.656.06-.75.09 0 0 7.5 13 11.75 27.75S27-126.5 27-126.5l51.47 5.12.936-.06.094-.31c-2.22-15.48-9.068-30.05-14.25-44.75 0 0-18.5-9-31.5-11.5-1.018-.2-2.01-.37-3-.53-.596-.1-1.167-.2-1.75-.28-.237-.04-.453-.06-.688-.1-1.306-.18-2.588-.34-3.812-.46-.735-.08-1.395-.13-2.094-.19-.685-.06-1.353-.11-2-.16-.992-.07-1.89-.12-2.78-.15-1.457-.07-2.77-.1-3.907-.1z" transform="translate(0 192)"/><path fill="url(#I)" d="M13-78.75s5.75 16 9.25 30S26-24.5 26-24.5l48.97 9.875.75-.125.03-.75L63.5-62l.125-.47z" transform="translate(0 192)"/><path fill="url(#J)" d="M127.44-125.38l-47.97 4h-.064l-15.78 58.91.343.095 53.62-15.72 11.66-44.655c-.22-.63-.45-1.45-.69-2.37z" transform="translate(0 192)"/><path fill="url(#K)" d="M125.19-23.625L75.72-14.75l-1.47 52.5S87 35 98.25 31.5 114.5 25 114.5 25l11.22-48.438z" transform="translate(0 192)"/><path fill="url(#L)" d="M114.75-180.25c6.02.53 10.45 41.8 13.81 55.13l51.13 11.78c.3-.13.64-.26 1-.38l.06-.28c-2.81-6.86-9.33-53.61-14.25-52.25 0 0-.61-.25-1.72-.72-3.32-1.39-11.09-4.59-20.28-7.78-12.25-4.25-29.75-5.5-29.75-5.5z" transform="translate(0 192)"/><path fill="url(#M)" d="M117.69-78.125l-.1.03-.09.345 8.25 53.25-.22 1 51.91 18.406c.51-.18 1.02-.38 1.53-.562l.03-.094-9.5-55z" transform="translate(0 192)"/><path fill="url(#N)" d="M231.75-26.5c-17.4 7.457-34.94 14.484-52.78 20.844L166.25 39.75s13-2.75 26-5.75 26.5-8 26.5-8S218 21 223 1.5s8.75-28 8.75-28z" transform="translate(0 192)"/><path fill="url(#O)" d="M235-126.5c-3.1 8.01-42.5 8.71-54.31 12.78L169.5-60.75l.44.156C186.3-64.85 202.33-69.712 218-76c0 0 1.75-10.5 6.75-23.75S235-126.5 235-126.5z" transform="translate(0 192)"/></g></g><path fill="url(#P)" d="M48.01 227.46l-4.807 4.55c-5.007-5.31-10.24-10.7-15.08-16.13l4.49-4.07c6.83 6.53 8.873 8.53 15.397 15.65z" transform="matrix(.244 0 0 .244 -1.183 1.76)"/><path fill="#2d3335" d="M29.332 34.624c-6.63-6.632-6.63-17.385 0-24.017 6.632-6.632 17.385-6.632 24.017 0 6.63 6.632 6.63 17.385 0 24.017-6.633 6.632-17.386 6.632-24.018 0zm.722-.722c6.366 6.37 16.448 6.608 22.814.242 6.368-6.37 6.127-16.45-.24-22.817-6.365-6.366-16.447-6.606-22.816-.24-6.366 6.367-6.127 16.45.242 22.815z"/><path fill="#9eaaac" d="M29.332 34.624c-6.63-6.632-6.63-17.385 0-24.017l.122-.12c-6.512 6.64-6.473 17.305.12 23.896 6.59 6.593 17.255 6.632 23.894.12-.04.04-.078.08-.12.12-6.63 6.633-17.384 6.633-24.016 0zm.6-23.657l.122-.12c6.366-6.366 16.448-6.126 22.814.24 6.368 6.367 6.607 16.45.24 22.815l-.12.122c6.243-6.373 5.968-16.37-.36-22.697-6.326-6.326-16.323-6.603-22.696-.36z"/><path fill="#d0e9f2" fill-opacity=".476" d="M29.812 34.144c6.37 6.366 16.69 6.366 23.056 0 6.368-6.37 6.368-16.69 0-23.057-6.366-6.366-16.687-6.366-23.056 0-6.366 6.367-6.366 16.688 0 23.057z"/><path fill="url(#Q)" d="M127.03 132.72c26.1 26.09 68.4 26.09 94.49 0 26.1-26.1 26.1-68.4 0-94.493-26.09-26.093-68.39-26.093-94.49 0-26.09 26.093-26.09 68.393 0 94.493z" transform="matrix(.244 0 0 .244 -1.183 1.76)"/><path fill="url(#R)" d="M116.05 115.28l-5.75 4.09c3.3 6.21 7.56 12.05 12.8 17.28 5.23 5.24 11.07 9.5 17.28 12.8l4.09-5.75c-5.92-3.04-11.49-7.01-16.45-11.97-4.96-4.96-8.93-10.53-11.97-16.45z" transform="matrix(.244 0 0 .244 -1.183 1.76)"/><path fill="url(#S)" d="M124.82 134.93c1.73 1.73 3.08 3.67 4.12 5.72l-26.21 26.21c-2.05-1.04-3.988-2.39-5.718-4.12s-3.084-3.67-4.12-5.72l26.208-26.21c2.05 1.04 3.99 2.39 5.72 4.12z" transform="matrix(.244 0 0 .244 -1.183 1.76)"/><path fill="url(#T)" d="M116.27 159.23L50.2 225.3c-3.985-2.19-5.833-3-9.29-6.46-3.46-3.46-4.268-5.3-6.46-9.29l66.07-66.07c5.06 3.75 12.12 10.4 15.75 15.75z" transform="matrix(.244 0 0 .244 -1.183 1.76)"/><path fill="url(#U)" d="M105.78 154.12c3.46 3.46 7.43 6.66 8.52 11.02l-64.1 64.1c-6.518-5.16-14.556-12.79-19.687-19.69l64.1-64.1c3.49.23 7.657 5.16 11.117 8.62z" transform="matrix(.244 0 0 .244 -1.183 1.76)"/><path fill="url(#V)" d="M105.53 154.36c3.46 3.46 7.68 6.42 8.77 10.78l-64.1 64.1c-7.878-6.91-11.8-10.63-19.687-19.69l64.1-64.1c3.49.23 7.417 5.45 10.877 8.91z" opacity=".596" transform="matrix(.244 0 0 .244 -1.183 1.76)"/><path fill="url(#W)" d="M131.17 37.05c40.66-32.173 78.13-12.728 77.78 5.303-.35 18.03-56.57 70.357-76.37 66.117-19.8-4.24-25.45-53.39-1.41-71.42z" opacity=".604" transform="matrix(.244 0 0 .244 -1.183 1.76)"/><text x="99.839" y="69.184" fill="url(#X)" font-weight="bold" transform="rotate(-8.91 10.71 8.48) scale(.244)" font-size="19.8" font-family="Monospace" opacity=".461"><tspan x="99.839" y="69.184">01011001</tspan> <tspan x="99.839" y="93.934">00110101</tspan> <tspan x="99.839" y="118.683">10010011</tspan></text><text x="99.41" y="67.898" fill="url(#Y)" font-weight="bold" transform="rotate(-8.91 10.71 8.48) scale(.244)" font-size="19.8" font-family="Monospace"><tspan x="99.41" y="67.898">01011001</tspan> <tspan x="99.41" y="92.648">00110101</tspan> <tspan x="99.41" y="117.397">10010011</tspan></text><path fill="url(#Z)" d="M219.46 129.09c-26.79 21.98-41.81 21.01-38.07 13.14 3.73-7.87 42.32-41.66 51.45-43.75 9.12-2.093 2.27 18.04-13.38 30.61z" opacity=".765" transform="matrix(.244 0 0 .244 -1.183 1.76)"/></g></svg>