<svg xmlns="http://www.w3.org/2000/svg" width="41" height="41" viewBox="0 0 41 41"><defs><filter id="a" color-interpolation-filters="sRGB"><feGaussianBlur stdDeviation="2 2" result="fbSourceGraphic"/><feColorMatrix result="fbSourceGraphicAlpha" in="fbSourceGraphic" values="0 0 0 -1 0 0 0 0 -1 0 0 0 0 -1 0 0 0 0 1 0"/><feGaussianBlur stdDeviation="2 2" result="blur" in="fbSourceGraphic"/></filter></defs><path d="M44.648.013c-6.882 0-15.964 5.732-20.282 12.804-1.21 1.98-1.92 3.86-2.155 5.532-.013.092-2.58 22.635-2.58 22.635L44.393 18.63c1.93-1.745 3.626-3.72 4.904-5.814C53.612 5.746 51.532.013 44.65.013zM32.138 20.5c-4.13 0-5.376-3.44-2.786-7.683 2.59-4.24 8.04-7.683 12.17-7.683 4.13 0 5.378 3.442 2.788 7.683-2.59 4.242-8.04 7.683-12.17 7.683z" transform="matrix(.55454 0 0 .83388 10.518 3.333)" filter="url(#a)" opacity=".5"/></svg>